<svg width="24" height="24" viewBox="0 0 24 24" fill="none" xmlns="http://www.w3.org/2000/svg">
<path d="M7.49999 15.251C7.30999 15.251 7.11999 15.181 6.96999 15.031C6.83051 14.8899 6.75229 14.6994 6.75229 14.501C6.75229 14.3026 6.83051 14.1121 6.96999 13.971L10.17 10.771C10.2473 10.6916 10.3415 10.6305 10.4456 10.5924C10.5497 10.5542 10.661 10.5398 10.7714 10.5504C10.8817 10.561 10.9883 10.5961 11.0832 10.6534C11.1782 10.7106 11.2591 10.7884 11.32 10.881L12.41 12.521L15.96 8.97099C16.25 8.68099 16.73 8.68099 17.02 8.97099C17.31 9.26099 17.31 9.74099 17.02 10.031L12.82 14.231C12.7426 14.3104 12.6485 14.3715 12.5444 14.4096C12.4403 14.4478 12.329 14.4621 12.2186 14.4516C12.1083 14.441 12.0017 14.4059 11.9067 14.3486C11.8118 14.2914 11.7309 14.2136 11.67 14.121L10.58 12.481L8.02999 15.031C7.87999 15.181 7.68999 15.251 7.49999 15.251Z" fill="black"/>
<path d="M16.5 12.25C16.09 12.25 15.75 11.91 15.75 11.5V10.25H14.5C14.09 10.25 13.75 9.91 13.75 9.5C13.75 9.09 14.09 8.75 14.5 8.75H16.5C16.91 8.75 17.25 9.09 17.25 9.5V11.5C17.25 11.91 16.91 12.25 16.5 12.25Z" fill="black"/>
<path d="M15 22.75H9C3.57 22.75 1.25 20.43 1.25 15V9C1.25 3.57 3.57 1.25 9 1.25H15C20.43 1.25 22.75 3.57 22.75 9V15C22.75 20.43 20.43 22.75 15 22.75ZM9 2.75C4.39 2.75 2.75 4.39 2.75 9V15C2.75 19.61 4.39 21.25 9 21.25H15C19.61 21.25 21.25 19.61 21.25 15V9C21.25 4.39 19.61 2.75 15 2.75H9Z" fill="black"/>
</svg>
