<svg width="23" height="23" viewBox="0 0 23 23" fill="none" xmlns="http://www.w3.org/2000/svg">
<path d="M3.96848 9.85254C3.76522 9.85254 3.55127 9.76696 3.4015 9.61719C3.17684 9.38184 3.10196 9.03949 3.23033 8.73995L5.22012 3.99014C5.26291 3.89386 5.28431 3.82967 5.3164 3.77618C6.89967 0.128243 8.92155 -0.759675 12.4946 0.609643C12.6979 0.684527 12.8583 0.844994 12.9439 1.04825C13.0295 1.25151 13.0295 1.47616 12.9439 1.67942L9.80946 8.95391C9.68109 9.25344 9.39225 9.43533 9.07132 9.43533H6.02245C5.41268 9.43533 4.835 9.553 4.27871 9.78836C4.18243 9.83115 4.07546 9.85254 3.96848 9.85254ZM9.75598 1.60454C8.42945 1.60454 7.61642 2.47106 6.7713 4.43945C6.7606 4.47154 6.7392 4.50363 6.7285 4.53573L5.3271 7.86273C5.56245 7.84134 5.7871 7.83064 6.02245 7.83064H8.53643L11.1146 1.83989C10.6118 1.67942 10.1625 1.60454 9.75598 1.60454Z" fill="#C2C0FF"/>
<path d="M17.9724 9.64963C17.8975 9.64963 17.8119 9.63893 17.737 9.61753C17.3305 9.49986 16.9026 9.43567 16.4533 9.43567H9.07184C8.8044 9.43567 8.54765 9.29664 8.39788 9.07199C8.25881 8.84734 8.22672 8.5585 8.3337 8.31245L11.436 1.11284C11.5965 0.727725 12.0672 0.46028 12.463 0.599352C12.5914 0.642143 12.7091 0.695631 12.8374 0.74912L15.3621 1.8082C16.8384 2.41797 17.8226 3.05984 18.4645 3.83008C18.5928 3.97985 18.6998 4.14032 18.8068 4.31148C18.9245 4.49334 19.0314 4.7073 19.1063 4.93195C19.1384 5.00683 19.1919 5.14591 19.224 5.29567C19.5235 6.31196 19.3738 7.55291 18.7319 9.15757C18.5928 9.45707 18.2933 9.64963 17.9724 9.64963ZM10.2914 7.83105H16.464C16.8063 7.83105 17.1379 7.86314 17.4696 7.91663C17.7691 6.98592 17.8333 6.26917 17.6621 5.69149C17.6407 5.59521 17.6193 5.55242 17.6086 5.50963C17.5444 5.33847 17.5017 5.24219 17.4482 5.1566C17.3733 5.03893 17.3198 4.94265 17.2342 4.84637C16.7742 4.29008 15.9612 3.77659 14.7416 3.2738L12.6342 2.39658L10.2914 7.83105Z" fill="#C2C0FF"/>
<path d="M15.4153 23H7.07103C6.77149 23 6.49335 22.9786 6.21521 22.9465C2.46029 22.7005 0.320733 20.5502 0.0639869 16.7525C0.0318935 16.5172 0.010498 16.2283 0.010498 15.9395V13.8534C0.010498 11.4464 1.444 9.2748 3.65844 8.312C4.41798 7.99106 5.20962 7.8306 6.03335 7.8306H16.4744C17.0841 7.8306 17.6725 7.91618 18.2181 8.08734C20.7321 8.84689 22.4972 11.2218 22.4972 13.8534V15.9395C22.4972 16.1748 22.4865 16.3995 22.4758 16.6134C22.2405 20.7963 19.8014 23 15.4153 23ZM6.02265 9.43524C5.41287 9.43524 4.83519 9.55292 4.27891 9.78827C2.65285 10.4943 1.60447 12.0883 1.60447 13.8534V15.9395C1.60447 16.1641 1.62586 16.3888 1.64726 16.6028C1.85052 19.6516 3.3482 21.1493 6.35428 21.3526C6.62172 21.3847 6.83568 21.4061 7.06033 21.4061H15.4046C18.9349 21.4061 20.6679 19.8549 20.8391 16.5386C20.8498 16.346 20.8605 16.1534 20.8605 15.9395V13.8534C20.8605 11.9171 19.566 10.1841 17.726 9.6171C17.3195 9.49943 16.8916 9.43524 16.4423 9.43524H6.02265Z" fill="#C2C0FF"/>
<path d="M0.802333 14.6557C0.363724 14.6557 0 14.292 0 13.8534V10.7189C0 7.34914 2.3856 4.43935 5.68052 3.79748C5.96936 3.74399 6.2689 3.85097 6.46146 4.07562C6.64332 4.30028 6.69681 4.62121 6.57913 4.88866L4.70702 9.36032C4.62144 9.55288 4.47167 9.70265 4.28981 9.78824C2.66375 10.4943 1.61536 12.0883 1.61536 13.8534C1.60467 14.292 1.25164 14.6557 0.802333 14.6557ZM4.39679 5.95843C3.02747 6.72867 2.03258 8.07659 1.72234 9.64917C2.19304 9.16777 2.73863 8.76125 3.3591 8.46171L4.39679 5.95843Z" fill="#C2C0FF"/>
<path d="M21.6834 14.6557C21.2447 14.6557 20.881 14.292 20.881 13.8534C20.881 11.9171 19.5866 10.1841 17.7466 9.61708C17.5326 9.55289 17.3508 9.40312 17.2545 9.19984C17.1582 8.99658 17.1475 8.76123 17.2331 8.55797C17.7359 7.30634 17.8642 6.39702 17.661 5.69097C17.6396 5.59469 17.6182 5.5519 17.6075 5.50911C17.4684 5.19887 17.5433 4.83515 17.7894 4.5998C18.0354 4.36445 18.4098 4.31096 18.7094 4.47143C21.0415 5.69097 22.4857 8.08727 22.4857 10.7189V13.8534C22.4857 14.292 22.122 14.6557 21.6834 14.6557ZM18.9982 8.38681C19.6722 8.69705 20.2712 9.13566 20.774 9.65987C20.5708 8.61146 20.068 7.65936 19.3298 6.91052C19.2764 7.35982 19.1694 7.85192 18.9982 8.38681Z" fill="#C2C0FF"/>
</svg>
